<svg width="28" height="28" viewBox="0 0 28 28" fill="none" xmlns="http://www.w3.org/2000/svg">
<mask id="mask0_3_445" style="mask-type:luminance" maskUnits="userSpaceOnUse" x="0" y="0" width="28" height="28">
<path d="M26.7934 11.3711H14.0015V16.667H21.3647C20.6783 20.0315 17.8079 21.963 14.0015 21.963C9.50872 21.963 5.88954 18.3493 5.88954 13.8633C5.88954 9.37737 9.50872 5.76369 14.0015 5.76369C15.9359 5.76369 17.6831 6.44906 19.0559 7.57055L23.0495 3.58302C20.6159 1.46465 17.4959 0.15625 14.0015 0.15625C6.38873 0.15625 0.27356 6.26213 0.27356 13.8633C0.27356 21.4645 6.38873 27.5704 14.0015 27.5704C20.8655 27.5704 27.1054 22.586 27.1054 13.8633C27.1054 13.0534 26.9806 12.1811 26.7934 11.3711Z" fill="white"/>
</mask>
<g mask="url(#mask0_3_445)">
<path d="M-0.974426 21.9629V5.76367L9.63353 13.8633L-0.974426 21.9629Z" fill="#FBBC05"/>
</g>
<mask id="mask1_3_445" style="mask-type:luminance" maskUnits="userSpaceOnUse" x="0" y="0" width="28" height="28">
<path d="M26.7934 11.3711H14.0015V16.667H21.3647C20.6783 20.0315 17.8079 21.963 14.0015 21.963C9.50872 21.963 5.88954 18.3493 5.88954 13.8633C5.88954 9.37737 9.50872 5.76369 14.0015 5.76369C15.9359 5.76369 17.6831 6.44906 19.0559 7.57055L23.0495 3.58302C20.6159 1.46465 17.4959 0.15625 14.0015 0.15625C6.38873 0.15625 0.27356 6.26213 0.27356 13.8633C0.27356 21.4645 6.38873 27.5704 14.0015 27.5704C20.8655 27.5704 27.1054 22.586 27.1054 13.8633C27.1054 13.0534 26.9806 12.1811 26.7934 11.3711Z" fill="white"/>
</mask>
<g mask="url(#mask1_3_445)">
<path d="M-0.974426 5.76369L9.63353 13.8633L14.0015 10.0627L28.9774 7.63284V-1.08984H-0.974426V5.76369Z" fill="#EA4335"/>
</g>
<mask id="mask2_3_445" style="mask-type:luminance" maskUnits="userSpaceOnUse" x="0" y="0" width="28" height="28">
<path d="M26.7934 11.3711H14.0015V16.667H21.3647C20.6783 20.0315 17.8079 21.963 14.0015 21.963C9.50872 21.963 5.88954 18.3493 5.88954 13.8633C5.88954 9.37737 9.50872 5.76369 14.0015 5.76369C15.9359 5.76369 17.6831 6.44906 19.0559 7.57055L23.0495 3.58302C20.6159 1.46465 17.4959 0.15625 14.0015 0.15625C6.38873 0.15625 0.27356 6.26213 0.27356 13.8633C0.27356 21.4645 6.38873 27.5704 14.0015 27.5704C20.8655 27.5704 27.1054 22.586 27.1054 13.8633C27.1054 13.0534 26.9806 12.1811 26.7934 11.3711Z" fill="white"/>
</mask>
<g mask="url(#mask2_3_445)">
<path d="M-0.974426 21.963L17.7455 7.63284L22.6751 8.25589L28.9774 -1.08984V28.8165H-0.974426V21.963Z" fill="#34A853"/>
</g>
<mask id="mask3_3_445" style="mask-type:luminance" maskUnits="userSpaceOnUse" x="0" y="0" width="28" height="28">
<path d="M26.7934 11.3711H14.0015V16.667H21.3647C20.6783 20.0315 17.8079 21.963 14.0015 21.963C9.50872 21.963 5.88954 18.3493 5.88954 13.8633C5.88954 9.37737 9.50872 5.76369 14.0015 5.76369C15.9359 5.76369 17.6831 6.44906 19.0559 7.57055L23.0495 3.58302C20.6159 1.46465 17.4959 0.15625 14.0015 0.15625C6.38873 0.15625 0.27356 6.26213 0.27356 13.8633C0.27356 21.4645 6.38873 27.5704 14.0015 27.5704C20.8655 27.5704 27.1054 22.586 27.1054 13.8633C27.1054 13.0534 26.9806 12.1811 26.7934 11.3711Z" fill="white"/>
</mask>
<g mask="url(#mask3_3_445)">
<path d="M28.9774 28.8165L9.63353 13.8633L7.13754 11.9942L28.9774 5.76367V28.8165Z" fill="#4285F4"/>
</g>
</svg>
